<svg xmlns="http://www.w3.org/2000/svg" version="1.1" xmlns:xlink="http://www.w3.org/1999/xlink" xmlns:svgjs="http://svgjs.dev/svgjs" width="1500" height="492" viewBox="0 0 1500 492"><g transform="matrix(1,0,0,1,-0.9090909090911055,0.8121353309639403)"><svg viewBox="0 0 396 130" data-background-color="#ffffff" preserveAspectRatio="xMidYMid meet" height="492" width="1500" xmlns="http://www.w3.org/2000/svg" xmlns:xlink="http://www.w3.org/1999/xlink"><g id="tight-bounds" transform="matrix(1,0,0,1,0.24000000000003752,-0.21458860370998423)"><svg viewBox="0 0 395.5199999999999 130.42917720741997" height="130.42917720741997" width="395.5199999999999"><g><svg viewBox="0 0 579.5999344975664 191.13254087275513" height="130.42917720741997" width="395.5199999999999"><g transform="matrix(1,0,0,1,184.07993449756648,26.415568239288163)"><svg viewBox="0 0 395.52 138.3014043941788" height="138.3014043941788" width="395.52"><g id="textblocktransform"><svg viewBox="0 0 395.52 138.3014043941788" height="138.3014043941788" width="395.52" id="textblock"><g><svg viewBox="0 0 395.52 74.59316899316899" height="74.59316899316899" width="395.52"><g transform="matrix(1,0,0,1,0,0)"><svg width="395.52" viewBox="-0.7 -26.15 168.33999999999997 31.749999999999996" height="74.59316899316899" data-palette-color="#063c51"><path d="M21.15-22L21.15-22Q19.15-22.3 16.88-22.3 14.6-22.3 12.45-22L12.45-22Q13.8-19.7 15.65-18.25 17.5-16.8 20.33-15.38 23.15-13.95 24.93-12.75 26.7-11.55 28.85-8.8 31-6.05 31.55-3.05L31.55-3.05Q29.15 0.05 25.2 2.43 21.25 4.8 17.1 5.6L17.1 5.6Q14.3 5.35 10.03 4.03 5.75 2.7 3.6 2.7 1.45 2.7-0.7 4.05L-0.7 4.05Q0.2 1.5 2.25-2.35L2.25-2.35 2.65-2.35Q5.85-2.35 8.68-1.35 11.5-0.35 13.83 0.65 16.15 1.65 17.57 1.65 19 1.65 19.65 1.45L19.65 1.45Q19.65-1.85 17.6-4L17.6-4Q16.5-5.15 15.73-5.78 14.95-6.4 13.35-7.5L13.35-7.5 12.5-8.1Q9.1-10.45 6.9-12.88 4.7-15.3 3.7-18.85L3.7-18.85Q5.3-22.4 6.85-25L6.85-25Q11.6-26.15 16.7-26.15L16.7-26.15 18.9-26.15Q23.2-26.15 28.75-24.95L28.75-24.95Q27.95-21.65 26.8-19L26.8-19Q22.6-18.7 20.3-18.7L20.3-18.7Q20.75-19.85 21.15-22ZM54.2-21.95L54.2-21.95Q52.45-22.25 50.82-22.25 49.2-22.25 46.9-21.7L46.9-21.7Q46.15-18.55 46.15-15.55L46.15-15.55Q46.15-7.8 53.05-3.65L53.05-3.65Q57.65-6.7 61.35-11.25L61.35-11.25Q61.5-9.25 61.6-5.15L61.6-5.15Q57.9-2.25 54.05-0.6 50.2 1.05 44.45 1.05L44.45 1.05 43.3 1.05Q38.8-0.9 36.22-4.7 33.65-8.5 33.65-12.7L33.65-12.7Q33.65-18.3 38.25-22.23 42.85-26.15 51.6-26.15L51.6-26.15Q56.5-26.15 61.85-24.9L61.85-24.9Q61.05-21.75 59.85-18.95L59.85-18.95Q56.7-18.65 53.35-18.65L53.35-18.65Q53.85-20.05 54.2-21.95ZM89.84-25L96.25-25Q96.44-21.75 96.44-15.53 96.44-9.3 95.65-2.25L95.65-2.25Q90.44 1.1 83.19 1.1L83.19 1.1Q73.55 1.1 67.59-2.25L67.59-2.25Q66.94-7.65 66.94-12.73 66.94-17.8 67.69-25L67.69-25 81.14-25Q79.14-14.15 79.05-4.15L79.05-4.15Q81.14-2.25 85.09-2.25 89.05-2.25 91.14-3.65L91.14-3.65Q91.25-5.3 91.25-8.4L91.25-8.4Q91.25-16.3 89.84-25L89.84-25ZM114.49-3.25L114.49-3.25Q117.89-3.25 120.04-3.8L120.04-3.8Q119.14-9.35 114.94-12.05L114.94-12.05Q114.49-7.6 114.49-3.25ZM101.89-15L101.89-15Q101.89-20.25 102.84-25L102.84-25 130.59-25Q128.34-18 121.99-14.85L121.99-14.85Q127.74-12.8 131.19-9.15L131.19-9.15Q130.74-4.5 129.04 0L129.04 0 103.89 0Q101.89-6.95 101.89-15ZM115.34-15.5L115.34-15.5Q117.79-16.15 119.89-17.75 121.99-19.35 122.89-21.7L122.89-21.7Q118.89-21.7 116.39-21.45L116.39-21.45Q115.79-18.55 115.34-15.5ZM167.64-0.4L167.64-0.4 167.64 0 156.04 0Q155.84-2.85 155.19-5.9L155.19-5.9Q152.09-2.75 148.19 0L148.19 0 136.54 0Q136.19-2.05 136.19-5.43 136.19-8.8 137.19-12.2L137.19-12.2Q140.79-13.25 144.12-15.75 147.44-18.25 148.94-21.15L148.94-21.15Q147.59-23.25 146.09-25L146.09-25 162.69-25Q167.64-14.25 167.64-0.4ZM154.29-9.55L154.29-9.55Q152.99-14 150.89-17.95L150.89-17.95Q148.54-11.05 148.19-4.9L148.19-4.9Q151.79-6.75 154.29-9.55Z" opacity="1" transform="matrix(1,0,0,1,0,0)" fill="#063c51" class="wordmark-text-0" data-fill-palette-color="primary" id="text-0"></path></svg></g></svg></g><g transform="matrix(1,0,0,1,0,92.20282595640035)"><svg viewBox="0 0 155.02971163080426 46.098578437778436" height="46.098578437778436" width="155.02971163080426"><g transform="matrix(1,0,0,1,0,0)"><svg width="155.02971163080426" viewBox="1.25 -35.45 120.89 35.95" height="46.098578437778436" data-palette-color="#063c51"><path d="M3.3-9L3.3-9Q7.35-6.55 9.7-6.55L9.7-6.55Q11.2-6.55 11.2-7.6L11.2-7.6Q11.2-8.35 8.6-9.55L8.6-9.55Q2.35-12.1 2.35-17.9L2.35-17.9Q2.35-21.6 5.05-23.55 7.75-25.5 11.53-25.5 15.3-25.5 17.93-24.7 20.55-23.9 20.55-22.6L20.55-22.6Q20.55-21.5 19.48-19.7 18.4-17.9 18-17.75L18-17.75Q15.85-18.95 13.35-18.95L13.35-18.95Q12-18.95 12-18L12-18Q12-17.4 12.53-16.98 13.05-16.55 14.45-15.93 15.85-15.3 16.78-14.8 17.7-14.3 18.85-13.4L18.85-13.4Q21.25-11.5 21.25-8.45L21.25-8.45Q21.25-4.45 18.6-1.98 15.95 0.5 10.6 0.5L10.6 0.5Q7.05 0.5 4.15-0.7 1.25-1.9 1.25-4L1.25-4Q1.25-5.4 1.93-6.95 2.6-8.5 3.3-9ZM32.95-12.4L32.95-12.4Q32.95-7.5 36.65-7.5L36.65-7.5Q39.05-7.5 40.65-8.45L40.65-8.45Q41.4-8.45 41.87-5.88 42.35-3.3 42.35-2.38 42.35-1.45 42.1-1.15L42.1-1.15Q39.45 0.5 34.85 0.5 30.25 0.5 27.02-2.93 23.8-6.35 23.8-12.28 23.8-18.2 26.97-21.85 30.15-25.5 35.42-25.5 40.7-25.5 42.75-22.95L42.75-22.95Q43.2-22.4 43.2-21.33 43.2-20.25 42.8-18.7L42.8-18.7Q41.9-15.5 40.45-15L40.45-15Q40.25-14.95 39.87-14.95 39.5-14.95 38.95-15.55L38.95-15.55Q37-17.5 35.82-17.5 34.65-17.5 33.8-16.3 32.95-15.1 32.95-12.4ZM45.7-9.95L45.7-24.7Q45.7-25.25 50-25.25 54.3-25.25 54.3-24.7L54.3-24.7 54.3-10.1Q54.3-7.6 55.9-7.6L55.9-7.6Q57.1-7.6 58.6-8.65L58.6-8.65 58.6-24.7Q58.6-25.2 62.85-25.2 67.1-25.2 67.1-24.7L67.1-24.7 67.1-8.3 68.4-8.3Q70.1-8.3 70.1-5.05L70.1-5.05Q70.1-3.4 69.4-1.7L69.4-1.7Q68.4 0.5 66.7 0.5L66.7 0.5Q63.35 0.5 61.75-2.25L61.75-2.25 61.7-2.2Q58.65 0.5 55.15 0.5L55.15 0.5Q50.3 0.5 48-1.93 45.7-4.35 45.7-9.95L45.7-9.95ZM73.39-2.15L73.39-34.85Q73.39-35.45 77.72-35.45 82.04-35.45 82.04-34.8L82.04-34.8 82.04-25.1Q84.19-25.5 85.09-25.5L85.09-25.5Q95.59-25.5 95.59-13.45L95.59-13.45Q95.59-6.75 92.37-3.13 89.14 0.5 83.22 0.5 77.29 0.5 73.39-2.15L73.39-2.15ZM83.69-17.7L83.69-17.7Q82.84-17.7 82.04-17.15L82.04-17.15 82.04-7.6Q82.74-7.3 83.52-7.3 84.29-7.3 85.09-7.9L85.09-7.9Q86.49-8.9 86.49-12.55L86.49-12.55Q86.49-17.7 83.69-17.7ZM102.29-18.15L102.29-18.15Q100.89-20.65 100.89-22.23 100.89-23.8 101.74-24.25L101.74-24.25Q104.59-25.5 109.57-25.5 114.54-25.5 116.59-23.18 118.64-20.85 118.64-16.3L118.64-16.3 118.64-8.4 120.34-8.4Q121.19-8.4 121.67-7.4 122.14-6.4 122.14-4.65 122.14-2.9 121.27-1.2 120.39 0.5 118.89 0.5L118.89 0.5Q116.19 0.5 114.54-0.95L114.54-0.95Q113.79-1.55 113.39-2.4L113.39-2.4Q111.09 0.5 106.24 0.5L106.24 0.5Q102.59 0.5 100.09-2.1 97.59-4.7 97.59-8.25L97.59-8.25Q97.59-16.4 107.34-16.4L107.34-16.4 110.09-16.4 110.09-16.9Q110.09-18.2 109.67-18.57 109.24-18.95 107.69-18.95L107.69-18.95Q105.79-18.95 102.29-18.15ZM106.29-8.95L106.29-8.95Q106.29-7.85 106.89-7.28 107.49-6.7 108.42-6.7 109.34-6.7 110.09-7.45L110.09-7.45 110.09-11.3 108.69-11.3Q106.29-11.3 106.29-8.95Z" opacity="1" transform="matrix(1,0,0,1,0,0)" fill="#063c51" class="slogan-text-1" data-fill-palette-color="secondary" id="text-1"></path></svg></g></svg></g></svg></g></svg></g><g><svg viewBox="0 0 166.4702775343351 191.13254087275513" height="191.13254087275513" width="166.4702775343351"><g><svg xmlns="http://www.w3.org/2000/svg" xmlns:xlink="http://www.w3.org/1999/xlink" version="1.1" x="0" y="0" viewBox="5 1 54 62" style="enable-background:new 0 0 64 64;" xml:space="preserve" height="191.13254087275513" width="166.4702775343351" class="icon-icon-0" data-fill-palette-color="accent" id="icon-0"><path d="M54.392 47.624L48 45.3V45c0-1.654-1.346-3-3-3h-6v-2.368c0.66-0.475 1.272-1.022 1.831-1.632H45c2.757 0 5-2.243 5-5v-1c1.103 0 2-0.897 2-2v-7c0-1.103-0.897-2-2-2V1h-6v7.799C41.54 4.702 37.065 2 32 2c-7.72 0-14 6.28-14 14v2.658c-0.091 0.114-0.194 0.216-0.274 0.342H17c-1.103 0-2 0.897-2 2v4c0 1.103 0.897 2 2 2h0.249c0.441 1.306 1.469 2.323 2.751 2.762V29.9c0 4.004 1.978 7.546 5 9.727V42h-6c-1.654 0-3 1.346-3 3v0.3l-6.392 2.324C6.852 48.626 5 51.27 5 54.202V63h54v-8.798C59 51.27 57.148 48.626 54.392 47.624zM46 45v2.169c0 3.419 0.796 6.784 2.313 9.831H42v2h7v2H33v-2h7v-2h-7v-2.629l3.155-3.681c1.616-1.886 2.591-4.231 2.8-6.689H45C45.551 44 46 44.448 46 45zM15 59h16v2H15V59zM48 33c0 1.654-1.346 3-3 3H35v-2h9c1.103 0 2-0.897 2-2h2V33zM31.293 17.879C30.727 17.312 29.973 17 29.172 17h-7.758c-0.491 0-0.963 0.097-1.414 0.25V16c0-0.338 0.023-0.669 0.051-1h9.535c0.645 0 1.251 0.251 1.707 0.707L32 16.415l0.708-0.708C33.163 15.251 33.769 15 34.414 15H44v2.25C43.549 17.097 43.077 17 42.586 17h-7.757c-0.801 0-1.555 0.312-2.122 0.879L32 18.586 31.293 17.879zM48 17h-2v-2h2V17zM34.375 20.961l-0.11-0.329c-0.118-0.354-0.313-0.666-0.563-0.92l0.419-0.419C34.31 19.104 34.562 19 34.829 19h7.757c0.517 0 1.005 0.168 1.414 0.466v8.057C43.591 27.827 43.102 28 42.586 28h-4.125c-1.041 0-1.961-0.663-2.291-1.651L34.388 21h0.026L34.375 20.961zM48 9h-2V7h2V9zM48 11v2h-2v-2H48zM33 23.162l1.273 3.82C34.875 28.787 36.558 30 38.461 30h4.125c0.489 0 0.962-0.095 1.414-0.249V32H33V23.162zM33 34v2h-2v-2H33zM50 30h-4v-7h4V30zM46 21v-2h2v2H46zM48 3v2h-2V3H48zM32 4c5.545 0 10.269 3.772 11.61 9h-9.196c-0.871 0-1.703 0.25-2.414 0.717C31.289 13.25 30.457 13 29.586 13h-9.191C21.732 7.833 26.421 4 32 4zM19.035 25.879L18.927 25H17v-4h1.96l0.267-0.585c0.127-0.278 0.289-0.517 0.48-0.708C20.163 19.251 20.769 19 21.414 19h7.758c0.263 0 0.521 0.106 0.707 0.293l0.419 0.419c-0.25 0.254-0.445 0.566-0.563 0.92l-0.11 0.329L29.586 21h0.026l-1.783 5.349C27.5 27.337 26.58 28 25.539 28h-4.125C20.206 28 19.183 27.088 19.035 25.879zM22.005 30h3.534c1.903 0 3.586-1.213 4.188-3.019L31 23.162V32h-2v6h8.848c-1.687 1.219-3.722 1.9-5.848 1.9C26.519 39.9 22.059 35.467 22.005 30zM32 41.9c1.75 0 3.45-0.382 5-1.093V43c0 2.341-0.839 4.609-2.363 6.388L32 52.463l-2.637-3.074C27.839 47.609 27 45.341 27 43v-2.205C28.524 41.498 30.214 41.9 32 41.9zM18 45c0-0.552 0.449-1 1-1h6.045c0.209 2.458 1.184 4.803 2.8 6.69L31 54.371V57H15.687C17.204 53.953 18 50.588 18 47.169V45zM7 54.202c0-2.095 1.323-3.982 3.292-4.699l5.7-2.072c-0.046 3.543-1.024 7.015-2.849 10.055L13 57.723V61H7V54.202zM57 61h-6v-3.277l-0.143-0.237c-1.824-3.04-2.802-6.512-2.849-10.055l5.7 2.072C55.677 50.22 57 52.107 57 54.202V61z" fill="#6cb3c2" data-fill-palette-color="accent"></path></svg></g></svg></g></svg></g><defs></defs></svg><rect width="395.5199999999999" height="130.42917720741997" fill="none" stroke="none" visibility="hidden"></rect></g></svg></g></svg>